<!-- Generator: Adobe Illustrator 24.1.1, SVG Export Plug-In  -->
<svg version="1.1" xmlns="http://www.w3.org/2000/svg" xmlns:xlink="http://www.w3.org/1999/xlink" x="0px" y="0px" 
	  viewBox="0 0 201.7 72.6" style="enable-background:new 0 0 201.7 72.6;" xml:space="preserve">
<style type="text/css">
	.st0{fill-rule:evenodd;clip-rule:evenodd;}
</style>
<defs>
</defs>
<path class="st0" d="M25.8,3.2C12.7,18.6,0.1,37.7,0,52c0,5.4,1.7,10.1,5.8,13.6c5.9,5.1,12.4,6.9,18.9,6.9c9.5,0,18.9-3.8,26.3-6.8
	c12.4-5,149.8-64.6,149.8-64.6c1.3-0.7,1.1-1.5-0.6-1.1C199.6,0.3,50.7,40.6,50.7,40.6c-2.8,0.8-5.7,1.2-8.7,1.2
	c-11.4,0.1-21.6-6.3-21.5-19.7C20.5,17,22.1,10.6,25.8,3.2L25.8,3.2z"/>
</svg>
